<?xml version="1.0" encoding="UTF-8"?>
<svg version="1.1" xmlns="http://www.w3.org/2000/svg" width="436" height="60">
<path d="M0 0 C2.475 0.495 2.475 0.495 5 1 C5.50828443 4.35296491 6.00511457 7.70753343 6.5 11.0625 C6.64308594 12.00544922 6.78617188 12.94839844 6.93359375 13.91992188 C7.67809139 19.00732242 8.17113566 23.8587994 8 29 C6.35 28.67 4.7 28.34 3 28 C2.01 22.72 1.02 17.44 0 12 C-2.31 15.63 -4.62 19.26 -7 23 C-13.96594083 21.60681183 -14.94231189 18.64893835 -19 13 C-19 17.62 -19 22.24 -19 27 C-20.65 26.67 -22.3 26.34 -24 26 C-25.23402862 21.22907044 -25.11265112 16.57530554 -25.0625 11.6875 C-25.05798828 10.85154297 -25.05347656 10.01558594 -25.04882812 9.15429688 C-25.03710548 7.10283351 -25.01917203 5.05140727 -25 3 C-23.68 2.67 -22.36 2.34 -21 2 C-19.53927468 3.60198888 -18.08150284 5.20667116 -16.625 6.8125 C-15.81289062 7.70582031 -15.00078125 8.59914063 -14.1640625 9.51953125 C-12 12 -12 12 -10 15 C-9.41992188 14.12988281 -9.41992188 14.12988281 -8.828125 13.2421875 C-8.30734375 12.46101563 -7.7865625 11.67984375 -7.25 10.875 C-6.70601562 10.05902344 -6.16203125 9.24304687 -5.6015625 8.40234375 C-3.734375 5.6015625 -1.8671875 2.80078125 0 0 Z " fill="#000000" transform="translate(27,14)"/>
<path d="M0 0 C1.65 0 3.3 0 5 0 C5.66 2.64 6.32 5.28 7 8 C7.556875 7.01 8.11375 6.02 8.6875 5 C11 2 11 2 13.5625 1.375 C16.63702889 2.16334074 17.40989977 3.32193645 19 6 C19.37125 5.175 19.7425 4.35 20.125 3.5 C22 1 22 1 24.9375 0.4375 C28.71359573 1.1310686 29.77056944 1.89472171 32 5 C33.80342432 9.77907446 34.2075427 13.9152038 34 19 C32.68 19.33 31.36 19.66 30 20 C28.14038586 15.7494534 27.06795435 11.50066475 26 7 C23.94356259 10.92592596 22.31061591 14.76570244 21 19 C18.6875 18.9375 18.6875 18.9375 16 18 C14.1875 14.4375 14.1875 14.4375 13 11 C11.35 13.97 9.7 16.94 8 20 C6.35 20 4.7 20 3 20 C-0.59681584 13.76551922 -0.12400212 6.97167454 0 0 Z " fill="#000000" transform="translate(109,19)"/>
<path d="M0 0 C1.65 0.33 3.3 0.66 5 1 C5.33 4.96 5.66 8.92 6 13 C6.99 12.34 7.98 11.68 9 11 C11.9375 10.5625 11.9375 10.5625 15 11 C19.20673229 14.85617126 20.81955194 19.57148692 21.1171875 25.2265625 C21.12398914 27.15142605 21.06749796 29.07630825 21 31 C19.68 31.33 18.36 31.66 17 32 C15.30566082 28.9530371 14.50532888 26.17178534 13.875 22.75 C13.70742188 21.85796875 13.53984375 20.9659375 13.3671875 20.046875 C13.18542969 19.03367187 13.18542969 19.03367187 13 18 C12.01 18 11.02 18 10 18 C8.68 22.29 7.36 26.58 6 31 C4.35 31.33 2.7 31.66 1 32 C-1.44847646 24.65457062 -1.09841656 16.55197669 -1.125 8.875 C-1.12959229 8.11622559 -1.13418457 7.35745117 -1.13891602 6.57568359 C-1.12340898 1.12340898 -1.12340898 1.12340898 0 0 Z " fill="#000000" transform="translate(367,11)"/>
<path d="M0 0 C1.67542976 0.28604898 3.34385343 0.61781233 5 1 C5.6761872 4.85255857 6.33923092 8.70726957 7 12.5625 C7.19078125 13.64853516 7.3815625 14.73457031 7.578125 15.85351562 C8.50674068 21.30913274 9.25413964 26.46452096 9 32 C3.16996035 33.69259216 -2.68065048 33.25631432 -8 30.375 C-10.67223734 27.20171816 -11 25.12205967 -11 21 C-9.115873 15.72444439 -4.66366889 13.60323561 0 11 C-0.08378906 10.28972656 -0.16757813 9.57945313 -0.25390625 8.84765625 C-0.35574219 7.92855469 -0.45757812 7.00945313 -0.5625 6.0625 C-0.66691406 5.14597656 -0.77132812 4.22945312 -0.87890625 3.28515625 C-0.91886719 2.53105469 -0.95882812 1.77695313 -1 1 C-0.67 0.67 -0.34 0.34 0 0 Z M-5 21 C-5.58488562 23.62875402 -5.58488562 23.62875402 -5 26 C-3.81575674 27.41577477 -3.81575674 27.41577477 -0.4375 27.0625 C1.2640625 27.0315625 1.2640625 27.0315625 3 27 C2.67 23.7 2.34 20.4 2 17 C-0.69405105 17 -3.02924121 19.44855159 -5 21 Z " fill="#000000" transform="translate(178,7)"/>
<path d="M0 0 C2.92735724 4.39103586 2.44243343 8.66794989 2.65625 13.84765625 C2.67739224 17.09491699 2.67739224 17.09491699 5 19 C4.91796875 20.984375 4.91796875 20.984375 4 23 C-0.69039698 25.86193714 -6.50672769 27.93787576 -12 27 C-13.875 25.875 -13.875 25.875 -15 24 C-15.59391744 20.09711394 -15.33267605 18.49901408 -13.125 15.1875 C-10.43803926 12.42151101 -9.75060045 12.01501201 -5.875 11.9375 C-4.451875 11.9684375 -4.451875 11.9684375 -3 12 C-3.33 9.69 -3.66 7.38 -4 5 C-4.79664063 5.55880859 -4.79664063 5.55880859 -5.609375 6.12890625 C-6.31578125 6.60199219 -7.0221875 7.07507813 -7.75 7.5625 C-8.44609375 8.03816406 -9.1421875 8.51382812 -9.859375 9.00390625 C-12 10 -12 10 -14.265625 9.65234375 C-14.83796875 9.43707031 -15.4103125 9.22179688 -16 9 C-15.4414124 5.6908988 -14.6379547 4.2430463 -11.9375 2.25 C-7.81346807 -0.51071559 -4.87682931 -0.66126499 0 0 Z M-8 17 C-8.66 18.65 -9.32 20.3 -10 22 C-8.02 21.34 -6.04 20.68 -4 20 C-4.33 19.01 -4.66 18.02 -5 17 C-5.99 17 -6.98 17 -8 17 Z " fill="#000000" transform="translate(406,15)"/>
<path d="M0 0 C1.65 0 3.3 0 5 0 C5.33 4.62 5.66 9.24 6 14 C6.99 13.01 7.98 12.02 9 11 C12.58432086 10.46616498 14.28287182 10.48207409 17.25 12.625 C21.67803917 18.63448173 21.22921958 24.84325519 21 32 C19.68 32 18.36 32 17 32 C15.68 26.72 14.36 21.44 13 16 C9.67695058 19.32304942 9.08762757 21.24653845 7.8125 25.6875 C7.46832031 26.86699219 7.12414062 28.04648437 6.76953125 29.26171875 C6.51558594 30.16535156 6.26164062 31.06898437 6 32 C4.35 31.67 2.7 31.34 1 31 C-0.11911712 27.64264863 -0.11365586 25.11794614 -0.09765625 21.58203125 C-0.09443359 20.32841797 -0.09121094 19.07480469 -0.08789062 17.78320312 C-0.07951172 16.47287109 -0.07113281 15.16253906 -0.0625 13.8125 C-0.05748317 12.47721519 -0.05292059 11.14192859 -0.04882812 9.80664062 C-0.03702695 6.53771527 -0.02056297 3.26888009 0 0 Z " fill="#000000" transform="translate(63,11)"/>
<path d="M0 0 C3.14657081 3.14657081 2.43124291 7.33617405 2.56640625 11.58984375 C2.62217952 15.74779648 2.62217952 15.74779648 5 19 C5 20.32 5 21.64 5 23 C4.37351562 23.20496094 3.74703125 23.40992187 3.1015625 23.62109375 C2.28429687 23.89050781 1.46703125 24.15992187 0.625 24.4375 C-0.18710938 24.70433594 -0.99921875 24.97117187 -1.8359375 25.24609375 C-4.01031799 25.95179729 -4.01031799 25.95179729 -6 27 C-11.30075188 27.56390977 -11.30075188 27.56390977 -13.9375 25.4375 C-15.49319769 21.86854648 -15.05935857 19.70775499 -14 16 C-11.23445003 12.91838718 -9.83445768 12.06297794 -5.6875 11.75 C-4.3571875 11.87375 -4.3571875 11.87375 -3 12 C-3 9.69 -3 7.38 -3 5 C-3.886875 5.45375 -4.77375 5.9075 -5.6875 6.375 C-8.42931841 7.72004299 -11.15024331 8.91038715 -14 10 C-14.66 9.01 -15.32 8.02 -16 7 C-10.40932421 1.25822487 -7.89162427 -0.50105551 0 0 Z M-8.625 18.375 C-10.21531408 19.89968321 -10.21531408 19.89968321 -10 22 C-8.02 21.34 -6.04 20.68 -4 20 C-4.33 19.01 -4.66 18.02 -5 17 C-7.10031679 16.78468592 -7.10031679 16.78468592 -8.625 18.375 Z " fill="#000000" transform="translate(102,15)"/>
<path d="M0 0 C3 2.3125 3 2.3125 5 5 C5 5.99 5 6.98 5 8 C1.85375007 8.26218749 0.38162983 8.24754367 -2.3125 6.5 C-3.1478125 5.7575 -3.1478125 5.7575 -4 5 C-4.33 5.33 -4.66 5.66 -5 6 C-4.62206515 9.90532683 -4.23947487 13.2815754 -3 17 C-0.36 17.33 2.28 17.66 5 18 C5 19.32 5 20.64 5 22 C3.02 22.33 1.04 22.66 -1 23 C-0.67 24.03125 -0.34 25.0625 0 26.125 C0.95835109 29.50661027 1.32116318 32.46720504 1 36 C0.34 36.99 -0.32 37.98 -1 39 C-2.32 38.67 -3.64 38.34 -5 38 C-5.06058594 37.41992188 -5.12117188 36.83984375 -5.18359375 36.2421875 C-5.66016561 31.79907137 -6.21008666 27.40094577 -7 23 C-9.31 23 -11.62 23 -14 23 C-14.33 21.68 -14.66 20.36 -15 19 C-13.02 18.67 -11.04 18.34 -9 18 C-9.22816406 17.41992188 -9.45632813 16.83984375 -9.69140625 16.2421875 C-11.43682402 11.49903427 -12.66397154 7.99191463 -11 3 C-8.67572791 -1.10165663 -4.20774708 -0.89230434 0 0 Z " fill="#000000" transform="translate(314,7)"/>
<path d="M0 0 C1.65 0 3.3 0 5 0 C5.66 2.97 6.32 5.94 7 9 C7.59167969 8.62746094 8.18335938 8.25492188 8.79296875 7.87109375 C9.58316406 7.39800781 10.37335938 6.92492187 11.1875 6.4375 C11.96480469 5.96183594 12.74210937 5.48617188 13.54296875 4.99609375 C16.48360967 3.80394203 18.00446363 4.11144836 21 5 C19.549046 8.82524236 17.61818068 10.19090966 14 12 C13.34 12 12.68 12 12 12 C12 12.66 12 13.32 12 14 C12.639375 14.0825 13.27875 14.165 13.9375 14.25 C18.20541517 15.29520372 22.03107667 17.14091826 26 19 C26 20.32 26 21.64 26 23 C19.31883293 22.50509874 14.15729904 20.65105931 8 18 C8 21.3 8 24.6 8 28 C6.35 27.67 4.7 27.34 3 27 C2.49212954 24.00114586 1.99353375 21.00121874 1.5 18 C1.35691406 17.16082031 1.21382813 16.32164063 1.06640625 15.45703125 C0.21519758 10.22817799 -0.14714583 5.29724973 0 0 Z " fill="#000000" transform="translate(339,13)"/>
<path d="M0 0 C1.65 0.33 3.3 0.66 5 1 C4.67 5.29 4.34 9.58 4 14 C8.69267989 9.9590812 10.7650674 5.73091655 13 0 C14.9375 0.375 14.9375 0.375 17 1 C18.0891728 3.1783456 18.28032356 4.7203964 18.53515625 7.1328125 C18.62216797 7.93847656 18.70917969 8.74414062 18.79882812 9.57421875 C18.88583984 10.41597656 18.97285156 11.25773437 19.0625 12.125 C19.15337891 12.97449219 19.24425781 13.82398438 19.33789062 14.69921875 C19.5620368 16.7991145 19.78146448 18.89951293 20 21 C18.34385343 21.38218767 16.67542976 21.71395102 15 22 C14 21 14 21 13.9375 17.9375 C13.9684375 16.4834375 13.9684375 16.4834375 14 15 C13.48050781 15.433125 12.96101562 15.86625 12.42578125 16.3125 C11.72839844 16.869375 11.03101563 17.42625 10.3125 18 C9.62800781 18.556875 8.94351563 19.11375 8.23828125 19.6875 C5.57348526 21.25010288 4.04124772 21.40043095 1 21 C-2.31310455 17.45840548 -2.38512408 13.90692501 -2.23828125 9.29296875 C-1.89682739 6.00717506 -1.0635768 3.12425685 0 0 Z " fill="#000000" transform="translate(233,20)"/>
<path d="M0 0 C1.65 0 3.3 0 5 0 C5.09038099 5.15171623 4.84681133 9.91913204 4 15 C8.93912821 10.76646153 11.32134512 5.87024368 14 0 C15.32 0.33 16.64 0.66 18 1 C18.53124117 4.12332403 19.04821133 7.24884354 19.5625 10.375 C19.71396484 11.26445312 19.86542969 12.15390625 20.02148438 13.0703125 C20.16005859 13.92109375 20.29863281 14.771875 20.44140625 15.6484375 C20.57232666 16.43395996 20.70324707 17.21948242 20.83813477 18.02880859 C21 20 21 20 20 22 C17.625 21.8125 17.625 21.8125 15 21 C13.6875 18.4375 13.6875 18.4375 13 16 C11.6696875 17.2375 11.6696875 17.2375 10.3125 18.5 C8.13779613 20.30028552 7.1387283 20.97096384 4.3125 21.5625 C2 21 2 21 0.37109375 19.3359375 C-1.36182637 16.38355507 -1.33583098 14.46569821 -1.25 11.0625 C-1.23453125 10.04285156 -1.2190625 9.02320313 -1.203125 7.97265625 C-1.01557237 5.22789559 -0.61169 2.67861025 0 0 Z " fill="#000000" transform="translate(277,20)"/>
<path d="M0 0 C1.32 0 2.64 0 4 0 C5 3 5 3 3.70703125 5.671875 C2.76923828 7.19554687 2.76923828 7.19554687 1.8125 8.75 C1.16667969 9.82894531 0.52085937 10.90789063 -0.14453125 12.01953125 C-1.16871982 13.66470151 -2.21090979 15.30049979 -3.32421875 16.88671875 C-7.03890296 22.36898503 -6.80766143 28.60474263 -7 35 C-8.65 35 -10.3 35 -12 35 C-12.82194526 31.8149621 -12.94070381 29.17615342 -12.6875 25.9375 C-12.56835231 20.45670622 -14.99934135 16.54280558 -17.6875 11.89453125 C-19.14363591 8.68323152 -19.24782457 6.48503295 -19 3 C-16.67578125 3.18359375 -16.67578125 3.18359375 -14 4 C-12.41796875 6.28515625 -12.41796875 6.28515625 -11.1875 9.0625 C-10.76855469 9.98160156 -10.34960938 10.90070312 -9.91796875 11.84765625 C-9.61503906 12.55792969 -9.31210938 13.26820312 -9 14 C-8.39671875 12.989375 -7.7934375 11.97875 -7.171875 10.9375 C-6.36533948 9.62453521 -5.55800621 8.31206023 -4.75 7 C-4.35425781 6.33226562 -3.95851562 5.66453125 -3.55078125 4.9765625 C-2.359375 3.0625 -2.359375 3.0625 0 0 Z " fill="#000000" transform="translate(224,7)"/>
<path d="M0 0 C1.9375 1.1875 1.9375 1.1875 3 3 C3.1875 5.6875 3.1875 5.6875 3 8 C1.68 8 0.36 8 -1 8 C-1.33 7.34 -1.66 6.68 -2 6 C-3.32 6.33 -4.64 6.66 -6 7 C-4.78611348 10.64165955 -3.75705848 11.03726327 -0.5625 13 C2.53633749 14.91003788 3.93774972 15.90662458 6 19 C6 22 6 22 5 25 C0.54094357 28.5203077 -4.16153026 28.35378303 -9.609375 28.3984375 C-10.39828125 28.26695313 -11.1871875 28.13546875 -12 28 C-12.66 27.01 -13.32 26.02 -14 25 C-9.69677317 23.53060547 -5.37702633 22.22556737 -1 21 C-3.62463132 18.2209786 -5.98080081 16.01181488 -9.25 14 C-12 12 -12 12 -13.0625 9.5625 C-12.98123508 6.23063813 -11.99594755 4.63750213 -10 2 C-6.30513897 -0.46324069 -4.36706908 -0.38991688 0 0 Z " fill="#000000" transform="translate(268,16)"/>
<path d="M0 0 C1.65 0 3.3 0 5 0 C5.66 1.98 6.32 3.96 7 6 C7.70125 5.34 8.4025 4.68 9.125 4 C12 2 12 2 15.0625 1.375 C18 2 18 2 20.3125 4.8125 C22.79363948 9.4990968 23.09923719 12.74042898 23 18 C21.68 18.33 20.36 18.66 19 19 C18.49384702 17.73160474 17.99530901 16.46016898 17.5 15.1875 C17.2215625 14.47980469 16.943125 13.77210937 16.65625 13.04296875 C16 11 16 11 16 8 C12.5486977 11.02113999 11.19279456 14.68967574 9.37890625 18.8203125 C8 21 8 21 5.83984375 21.8046875 C4.92912109 21.90136719 4.92912109 21.90136719 4 22 C2.02137273 18.59975397 1.43933337 15.43669339 0.875 11.5625 C0.70742188 10.45003906 0.53984375 9.33757813 0.3671875 8.19140625 C0.04822056 5.4191085 -0.07289361 2.7855773 0 0 Z " fill="#000000" transform="translate(412,18)"/>
<path d="M0 0 C3.69452101 0.06406684 5.00910827 0.26578057 8.25 2.25 C11.17066507 5.45331008 11.63716872 7.83968123 11.61328125 12.203125 C10.83901767 16.1525796 8.11615376 18.75742087 5.1875 21.375 C2.04878812 22.94435594 -0.35105822 22.72701103 -3.8125 22.375 C-7.3735609 19.89774024 -9.04152352 17.71576499 -9.8125 13.5 C-10.12139156 9.09203392 -8.89365664 6.22899379 -6.8125 2.375 C-4.33231247 -0.10518753 -3.42734049 0.05138442 0 0 Z M-1.8125 5.375 C-3.90151197 8.76964446 -4.15611606 11.42341529 -3.8125 15.375 C-3.1525 16.035 -2.4925 16.695 -1.8125 17.375 C1.30625698 17.21506374 2.76550441 16.76886255 5.0625 14.625 C6.39319102 12.40272116 6.39319102 12.40272116 6.125 9.75 C5.39607177 7.26422823 5.39607177 7.26422823 3.3125 6.0625 C1.08401875 5.22108986 1.08401875 5.22108986 -1.8125 5.375 Z " fill="#000000" transform="translate(47.8125,17.625)"/>
<path d="M0 0 C3 2 3 2 3.875 3.9375 C4 6 4 6 2.80078125 7.5546875 C0.64088167 9.28822946 -0.98023043 9.67743472 -3.6875 10.1875 C-4.49574219 10.34605469 -5.30398437 10.50460938 -6.13671875 10.66796875 C-6.75160156 10.77753906 -7.36648437 10.88710938 -8 11 C-7.01 11.99 -6.02 12.98 -5 14 C-2.03 13.01 0.94 12.02 4 11 C4.33 11.99 4.66 12.98 5 14 C2.49163607 16.87724098 0.71339063 18.75714362 -2.9375 20 C-6.74724203 20 -8.80498871 19.033189 -12 17 C-14.83773324 12.74340013 -14.62101074 8.9925995 -14 4 C-11.18337529 -1.37719263 -5.41150604 -0.77694411 0 0 Z M-5 4 C-5.66 4.66 -6.32 5.32 -7 6 C-5.68 6 -4.36 6 -3 6 C-3 5.34 -3 4.68 -3 4 C-3.66 4 -4.32 4 -5 4 Z " fill="#000000" transform="translate(160,19)"/>
</svg>
